<svg xmlns="http://www.w3.org/2000/svg" id="Layer_2" data-name="Layer 2" viewBox="0 0 356.04 60.68"><defs><style>      .cls-1 {        fill: #ffffff;      }      .cls-2 {        fill: #820ad1;      }    </style></defs><g id="Layer_1-2" data-name="Layer 1"><g><polygon class="cls-1" points="74.93 27.08 74.93 39.46 62.22 39.46 62.22 27.08 52.9 27.08 52.9 60.03 62.22 60.03 62.22 47.18 74.93 47.18 74.93 60.03 84.25 60.03 84.25 27.08 74.93 27.08"></polygon><polygon class="cls-1" points="88.01 27.08 88.01 60.03 114.46 60.03 114.46 52.82 97.23 52.82 97.23 46.8 111.87 46.8 111.87 39.83 97.23 39.83 97.23 34.28 113.85 34.28 113.85 27.08 88.01 27.08"></polygon><path class="cls-1" d="m117.75,27.08h15.58c10.92,0,18.41,6.35,18.41,16.47s-7.49,16.47-18.41,16.47h-15.58V27.08Zm15.2,25.51c5.6,0,9.37-3.34,9.37-9.04s-3.76-9.04-9.37-9.04h-5.88v18.08h5.88Z"></path><path class="cls-1" d="m177.75,42.85h8.24v13.65c-3.81,2.73-9.04,4.19-13.84,4.19-10.5,0-18.17-7.11-18.17-17.13s7.67-17.13,18.36-17.13c6.16,0,11.15,2.12,14.4,6.03l-5.93,5.37c-2.26-2.5-4.85-3.67-8-3.67-5.65,0-9.41,3.72-9.41,9.41s3.76,9.41,9.32,9.41c1.74,0,3.39-.33,5.04-1.08v-9.04Z"></path><polygon class="cls-1" points="190.03 27.08 190.03 60.03 216.48 60.03 216.48 52.82 199.26 52.82 199.26 46.8 213.89 46.8 213.89 39.83 199.26 39.83 199.26 34.28 215.87 34.28 215.87 27.08 190.03 27.08"></polygon><polygon class="cls-1" points="243.17 41.41 223.69 41.41 223.69 27.06 219.62 27.06 219.62 59.94 223.69 59.94 223.69 45.08 243.17 45.08 243.17 59.94 247.21 59.94 247.21 27.06 243.17 27.06 243.17 41.41"></polygon><path class="cls-1" d="m280.9,43.5c0,7.54-5.53,13.01-13.14,13.01s-13.24-5.47-13.24-13.01,5.57-13.01,13.24-13.01,13.14,5.47,13.14,13.01m-13.14-16.72c-9.85,0-17.27,7.19-17.27,16.72s7.42,16.72,17.27,16.72,17.22-7.19,17.22-16.72-7.4-16.72-17.22-16.72"></path><path class="cls-1" d="m329.08,30.68h9.19c8.22,0,13.74,5.15,13.74,12.82s-5.52,12.82-13.74,12.82h-9.19v-25.64Zm9.37-3.62h-13.45v32.88h13.45c10.36,0,17.59-6.76,17.59-16.44s-7.23-16.44-17.59-16.44"></path><path class="cls-1" d="m317.65,43.5c0,7.54-5.53,13.01-13.14,13.01s-13.24-5.47-13.24-13.01,5.57-13.01,13.24-13.01,13.14,5.47,13.14,13.01m-13.14-16.72c-9.84,0-17.27,7.19-17.27,16.72s7.42,16.72,17.27,16.72,17.22-7.19,17.22-16.72-7.4-16.72-17.22-16.72"></path><polygon class="cls-2" points="12.4 41.45 24.8 30.02 24.8 0 12.4 0 12.4 41.45"></polygon><polygon class="cls-2" points="0 60.03 12.4 60.03 12.4 41.45 0 52.89 0 60.03"></polygon><polygon class="cls-2" points="49.6 0 37.2 0 37.2 18.58 24.8 30.01 24.8 60.03 37.2 60.03 37.2 18.57 49.6 7.13 49.6 0"></polygon></g></g></svg>