<svg width="24" height="24" viewBox="0 0 24 24" fill="none" xmlns="http://www.w3.org/2000/svg">
<path d="M16.5003 4H7.49867C6.57066 4.00028 5.68077 4.36913 5.02467 5.02543C4.36857 5.68172 4 6.57173 4 7.49973V16.5003C4 17.4285 4.36872 18.3186 5.02505 18.975C5.68138 19.6313 6.57155 20 7.49973 20H16.5003C17.4285 20 18.3186 19.6313 18.975 18.975C19.6313 18.3186 20 17.4285 20 16.5003V7.49867C19.9997 6.57066 19.6309 5.68077 18.9746 5.02467C18.3183 4.36857 17.4283 4 16.5003 4Z" fill="#E9BA64"/>
<path fill-rule="evenodd" clip-rule="evenodd" d="M14.2225 11.5556H9.77827C9.68926 11.5567 9.60124 11.5362 9.52124 11.4957C9.44123 11.4552 9.37146 11.3959 9.31749 11.3225C9.26352 11.2491 9.22686 11.1636 9.21043 11.0729C9.19399 10.9822 9.19825 10.8887 9.22284 10.8L9.88799 8.42845C9.92337 8.30448 9.99652 8.19573 10.0965 8.11849C10.1965 8.04125 10.3179 7.99968 10.4426 8H13.5574C13.8145 8 14.0417 8.17511 14.1128 8.42845L14.7771 10.8009C14.8825 11.1796 14.6065 11.5556 14.2225 11.5556ZM12.978 16H17.4223C17.8063 16 18.0823 15.624 17.9777 15.2444L17.3125 12.8729C17.2771 12.7488 17.2038 12.6399 17.1037 12.5627C17.0035 12.4854 16.8819 12.4439 16.7571 12.4444H13.6431C13.386 12.4444 13.1588 12.6196 13.0877 12.8729L12.4234 15.2453C12.3163 15.624 12.594 16 12.978 16ZM6.57856 16H11.022C11.4068 16 11.682 15.624 11.5774 15.2444L10.9123 12.8729C10.8769 12.7489 10.8037 12.6402 10.7038 12.5629C10.6038 12.4857 10.4824 12.4441 10.3577 12.4444H7.24285C6.98571 12.4444 6.75856 12.6196 6.68742 12.8729L6.02314 15.2453C5.91599 15.624 6.19456 16 6.57856 16Z" fill="white"/>
</svg>
